<svg width="16" height="17" viewBox="0 0 16 17" fill="none" xmlns="http://www.w3.org/2000/svg">
<path d="M11.7713 11.8553C11.2495 12.3771 10.252 13.3746 9.41384 14.2127C8.63279 14.9938 7.36729 14.9938 6.58624 14.2128C5.76385 13.3904 4.78311 12.4096 4.22878 11.8553C2.14599 9.77251 2.14599 6.39563 4.22878 4.31283C6.31158 2.23003 9.68846 2.23003 11.7713 4.31283C13.8541 6.39563 13.8541 9.77251 11.7713 11.8553Z" stroke="#121826" stroke-width="1.5" stroke-linecap="round" stroke-linejoin="round"/>
<path d="M10 8.08407C10 9.18864 9.10459 10.0841 8.00002 10.0841C6.89545 10.0841 6.00002 9.18864 6.00002 8.08407C6.00002 6.9795 6.89545 6.08407 8.00002 6.08407C9.10459 6.08407 10 6.9795 10 8.08407Z" stroke="#121826" stroke-width="1.5" stroke-linecap="round" stroke-linejoin="round"/>
</svg>
