<svg width="16" height="17" viewBox="0 0 16 17" fill="none" xmlns="http://www.w3.org/2000/svg">
<path d="M2 4.08407C2 3.34769 2.59695 2.75073 3.33333 2.75073H5.51949C5.80645 2.75073 6.06121 2.93435 6.15195 3.20658L7.15049 6.20221C7.25541 6.51695 7.11292 6.86094 6.81618 7.00931L5.31134 7.76173C6.04617 9.39154 7.35919 10.7046 8.989 11.4394L9.74142 9.93455C9.88979 9.63781 10.2338 9.49533 10.5485 9.60024L13.5442 10.5988C13.8164 10.6895 14 10.9443 14 11.2312V13.4174C14 14.1538 13.403 14.7507 12.6667 14.7507H12C6.47715 14.7507 2 10.2736 2 4.75073V4.08407Z" stroke="#121826" stroke-width="1.5" stroke-linecap="round" stroke-linejoin="round"/>
</svg>
